# Blender 4.0.2
# www.blender.org
mtllib clock.mtl
o outside
v -0.311616 -0.000000 -0.754999
v 0.311616 0.000000 -1.000000
v -0.311616 -0.533865 -0.533865
v 0.311616 -0.707107 -0.707107
v -0.311616 -0.754999 0.000000
v 0.311616 -1.000000 0.000000
v -0.311616 -0.533865 0.533865
v 0.311616 -0.707107 0.707107
v -0.311616 -0.000000 0.754999
v 0.311616 0.000000 1.000000
v -0.311616 0.533865 0.533865
v 0.311616 0.707107 0.707107
v -0.311616 0.754999 0.000000
v 0.311616 1.000000 0.000000
v -0.311616 0.533865 -0.533865
v 0.311616 0.707107 -0.707107
v -0.311616 -0.000000 -1.000000
v -0.311616 -0.707107 -0.707107
v -0.311616 -1.000000 0.000000
v -0.311616 -0.707107 0.707107
v -0.311616 -0.000000 1.000000
v -0.311616 0.707107 0.707107
v -0.311616 1.000000 0.000000
v -0.311616 0.707107 -0.707107
v -0.166431 -0.000000 -0.754999
v -0.166431 -0.533865 -0.533865
v -0.166431 -0.754999 0.000000
v -0.166431 -0.533865 0.533865
v -0.166431 -0.000000 0.754999
v -0.166431 0.533865 0.533865
v -0.166431 0.754999 0.000000
v -0.166431 0.533865 -0.533865
vn -0.0000 -0.3827 -0.9239
vn -0.0000 -0.9239 -0.3827
vn -0.0000 -0.9239 0.3827
vn -0.0000 -0.3827 0.9239
vn -0.0000 0.3827 0.9239
vn -0.0000 0.9239 0.3827
vn 1.0000 -0.0000 -0.0000
vn -0.0000 0.9239 -0.3827
vn -0.0000 0.3827 -0.9239
vn -1.0000 -0.0000 -0.0000
vt 1.000000 0.500000
vt 1.000000 1.000000
vt 0.875000 1.000000
vt 0.875000 0.500000
vt 0.750000 1.000000
vt 0.750000 0.500000
vt 0.625000 1.000000
vt 0.625000 0.500000
vt 0.500000 1.000000
vt 0.500000 0.500000
vt 0.375000 1.000000
vt 0.375000 0.500000
vt 0.250000 1.000000
vt 0.250000 0.500000
vt 0.419706 0.419706
vt 0.250000 0.490000
vt 0.080294 0.419706
vt 0.010000 0.250000
vt 0.080294 0.080294
vt 0.250000 0.010000
vt 0.419706 0.080294
vt 0.490000 0.250000
vt 0.125000 1.000000
vt 0.125000 0.500000
vt 0.000000 1.000000
vt 0.000000 0.500000
vt 0.750000 0.068800
vt 0.621872 0.121872
vt 0.878128 0.378128
vt 0.750000 0.431200
vt 0.750000 0.490000
vt 0.919706 0.419706
vt 0.931200 0.250000
vt 0.990000 0.250000
vt 0.878128 0.121872
vt 0.919706 0.080294
vt 0.750000 0.010000
vt 0.580294 0.080294
vt 0.568800 0.250000
vt 0.510000 0.250000
vt 0.621872 0.378128
vt 0.580294 0.419706
s 0
f 17/1/1 2/2/1 4/3/1 18/4/1
f 18/4/2 4/3/2 6/5/2 19/6/2
f 19/6/3 6/5/3 8/7/3 20/8/3
f 20/8/4 8/7/4 10/9/4 21/10/4
f 21/10/5 10/9/5 12/11/5 22/12/5
f 22/12/6 12/11/6 14/13/6 23/14/6
f 4/15/7 2/16/7 16/17/7 14/18/7 12/19/7 10/20/7 8/21/7 6/22/7
f 23/14/8 14/13/8 16/23/8 24/24/8
f 24/24/9 16/23/9 2/25/9 17/26/9
f 9/27/1 11/28/1 30/28/1 29/27/1
f 3/29/10 1/30/10 17/31/10 18/32/10
f 5/33/10 3/29/10 18/32/10 19/34/10
f 7/35/10 5/33/10 19/34/10 20/36/10
f 9/27/10 7/35/10 20/36/10 21/37/10
f 11/28/10 9/27/10 21/37/10 22/38/10
f 13/39/10 11/28/10 22/38/10 23/40/10
f 15/41/10 13/39/10 23/40/10 24/42/10
f 1/30/10 15/41/10 24/42/10 17/31/10
f 5/33/8 7/35/8 28/35/8 27/33/8
f 1/30/5 3/29/5 26/29/5 25/30/5
f 15/41/4 1/30/4 25/30/4 32/41/4
f 11/28/2 13/39/2 31/39/2 30/28/2
f 7/35/9 9/27/9 29/27/9 28/35/9
f 3/29/6 5/33/6 27/33/6 26/29/6
f 13/39/3 15/41/3 32/41/3 31/39/3
o inside
v -0.166431 -0.000000 -0.754999
v -0.166431 -0.533865 -0.533865
v -0.166431 -0.754999 0.000000
v -0.166431 -0.533865 0.533865
v -0.166431 -0.000000 0.754999
v -0.166431 0.533865 0.533865
v -0.166431 0.754999 0.000000
v -0.166431 0.533865 -0.533865
v -0.104108 -0.000000 -0.754999
v -0.104108 -0.533865 -0.533865
v -0.104107 -0.754999 0.000000
v -0.104108 -0.533865 0.533865
v -0.104108 -0.000000 0.754999
v -0.104108 0.533865 0.533865
v -0.104108 0.754999 0.000000
v -0.104108 0.533865 -0.533865
vn -1.0000 -0.0000 -0.0000
vn 1.0000 -0.0000 -0.0000
vn -0.0000 -0.3827 -0.9239
vn -0.0000 -0.9239 -0.3827
vn -0.0000 -0.9239 0.3827
vn -0.0000 -0.3827 0.9239
vn -0.0000 0.3827 0.9239
vn -0.0000 0.9239 0.3827
vn -0.0000 0.9239 -0.3827
vn -0.0000 0.3827 -0.9239
vt 0.750000 0.431200
vt 0.878128 0.378128
vt 0.931200 0.250000
vt 0.878128 0.121872
vt 0.750000 0.068800
vt 0.621872 0.121872
vt 0.568800 0.250000
vt 0.621872 0.378128
s 0
f 33/43/11 34/44/11 35/45/11 36/46/11 37/47/11 38/48/11 39/49/11 40/50/11
f 41/43/12 48/50/12 47/49/12 46/48/12 45/47/12 44/46/12 43/45/12 42/44/12
f 34/44/13 33/43/13 41/43/13 42/44/13
f 35/45/14 34/44/14 42/44/14 43/45/14
f 36/46/15 35/45/15 43/45/15 44/46/15
f 37/47/16 36/46/16 44/46/16 45/47/16
f 38/48/17 37/47/17 45/47/17 46/48/17
f 39/49/18 38/48/18 46/48/18 47/49/18
f 40/50/19 39/49/19 47/49/19 48/50/19
f 33/43/20 40/50/20 48/50/20 41/43/20
o Cylinder
v 0.086809 0.765768 -0.243184
v 0.086809 1.282195 -0.243184
v 0.258107 0.765768 0.007412
v 0.258107 1.282195 0.007412
v 0.072710 0.765768 0.247765
v 0.072710 1.282195 0.247765
v -0.213170 0.765768 0.145715
v -0.213170 1.282195 0.145715
v -0.204456 0.765768 -0.157709
v -0.204456 1.282195 -0.157709
vn 0.8256 -0.0000 -0.5643
vn 0.7918 -0.0000 0.6108
vn -0.3362 -0.0000 0.9418
vn -0.0000 1.0000 -0.0000
vn -0.9996 -0.0000 -0.0287
vn -0.2816 -0.0000 -0.9595
vn -0.0000 -1.0000 -0.0000
vt 1.000000 0.500000
vt 1.000000 1.000000
vt 0.800000 1.000000
vt 0.800000 0.500000
vt 0.600000 1.000000
vt 0.600000 0.500000
vt 0.400000 1.000000
vt 0.400000 0.500000
vt 0.478254 0.324164
vt 0.250000 0.490000
vt 0.021746 0.324164
vt 0.108932 0.055836
vt 0.391068 0.055836
vt 0.200000 1.000000
vt 0.200000 0.500000
vt 0.000000 1.000000
vt 0.000000 0.500000
vt 0.750000 0.490000
vt 0.978254 0.324164
vt 0.891068 0.055836
vt 0.608932 0.055836
vt 0.521746 0.324164
s 0
f 49/51/21 50/52/21 52/53/21 51/54/21
f 51/54/22 52/53/22 54/55/22 53/56/22
f 53/56/23 54/55/23 56/57/23 55/58/23
f 52/59/24 50/60/24 58/61/24 56/62/24 54/63/24
f 55/58/25 56/57/25 58/64/25 57/65/25
f 57/65/26 58/64/26 50/66/26 49/67/26
f 49/68/27 51/69/27 53/70/27 55/71/27 57/72/27
o Cube
v -0.308672 1.130176 0.506019
v -0.308672 1.518598 0.506019
v -0.308672 1.130176 -0.506019
v -0.308672 1.518598 -0.506019
v 0.308672 1.130176 0.506019
v 0.308672 1.518598 0.506019
v 0.308672 1.130176 -0.506019
v 0.308672 1.518598 -0.506019
vn -1.0000 -0.0000 -0.0000
vn -0.0000 -0.0000 -1.0000
vn 1.0000 -0.0000 -0.0000
vn -0.0000 -0.0000 1.0000
vn -0.0000 -1.0000 -0.0000
vn -0.0000 1.0000 -0.0000
vt 0.375000 0.000000
vt 0.625000 0.000000
vt 0.625000 0.250000
vt 0.375000 0.250000
vt 0.625000 0.500000
vt 0.375000 0.500000
vt 0.625000 0.750000
vt 0.375000 0.750000
vt 0.625000 1.000000
vt 0.375000 1.000000
vt 0.125000 0.500000
vt 0.125000 0.750000
vt 0.875000 0.500000
vt 0.875000 0.750000
s 0
f 59/73/28 60/74/28 62/75/28 61/76/28
f 61/76/29 62/75/29 66/77/29 65/78/29
f 65/78/30 66/77/30 64/79/30 63/80/30
f 63/80/31 64/79/31 60/81/31 59/82/31
f 61/83/32 65/78/32 63/80/32 59/84/32
f 66/77/33 62/85/33 60/86/33 64/79/33
