# Blender 4.0.2
# www.blender.org
mtllib car.mtl
o Cube
v -3.429497 -0.444431 1.003560
v -3.429497 0.284280 1.003560
v -3.429497 -0.444431 -1.003560
v -3.429497 0.284280 -1.003560
v 2.247424 -0.444431 1.408513
v 2.247424 1.410306 1.408513
v 2.247424 -0.444431 -1.408513
v 2.247424 1.410306 -1.408513
v -2.172451 -0.444431 -1.100025
v -2.172451 0.444431 -1.100025
v -2.172451 -0.444431 1.100025
v -2.172451 0.444431 1.100025
v -1.579075 0.444431 -1.408513
v -1.579075 -0.444431 1.408513
v -1.579075 -0.444431 -1.408513
v -1.579075 0.444431 1.408513
v 1.021710 0.719344 -1.408513
v 1.021710 -0.444431 1.408513
v 1.021710 -0.444431 -1.408513
v 1.021710 0.719344 1.408513
vn -1.0000 -0.0000 -0.0000
vn -0.0000 -0.0000 -1.0000
vn 1.0000 -0.0000 -0.0000
vn -0.0765 -0.0000 0.9971
vn -0.0000 -1.0000 -0.0000
vn -0.1264 0.9920 -0.0000
vn -0.0000 1.0000 -0.0000
vn -0.4613 -0.0000 0.8873
vn -0.0765 -0.0000 -0.9971
vn -0.0000 -0.0000 1.0000
vn -0.1051 0.9945 -0.0000
vn -0.4613 -0.0000 -0.8873
vn -0.4911 0.8711 -0.0000
vt 0.375000 0.000000
vt 0.579956 0.000000
vt 0.579956 0.250000
vt 0.375000 0.250000
vt 0.375000 0.443296
vt 0.625000 0.443296
vt 0.625000 0.500000
vt 0.375000 0.500000
vt 0.625000 0.750000
vt 0.375000 0.750000
vt 0.375000 0.927753
vt 0.625000 0.927753
vt 0.579956 1.000000
vt 0.375000 1.000000
vt 0.318296 0.500000
vt 0.318296 0.750000
vt 0.802753 0.500000
vt 0.875000 0.500000
vt 0.875000 0.750000
vt 0.802753 0.750000
vt 0.802022 0.500000
vt 0.802022 0.750000
vt 0.125000 0.500000
vt 0.197247 0.500000
vt 0.197247 0.750000
vt 0.125000 0.750000
vt 0.375000 0.927022
vt 0.625000 0.927022
vt 0.625000 0.322247
vt 0.375000 0.322247
vt 0.375000 0.806704
vt 0.625000 0.806704
vt 0.681704 0.500000
vt 0.681704 0.750000
vt 0.197978 0.500000
vt 0.197978 0.750000
vt 0.625000 0.322978
vt 0.375000 0.322978
s 0
f 1/1/1 2/2/1 4/3/1 3/4/1
f 19/5/2 17/6/2 8/7/2 7/8/2
f 7/8/3 8/7/3 6/9/3 5/10/3
f 11/11/4 12/12/4 2/13/4 1/14/4
f 19/15/5 7/8/5 5/10/5 18/16/5
f 10/17/6 4/18/6 2/19/6 12/20/6
f 13/21/7 10/17/7 12/20/7 16/22/7
f 3/23/5 9/24/5 11/25/5 1/26/5
f 14/27/8 16/28/8 12/12/8 11/11/8
f 3/4/9 4/3/9 10/29/9 9/30/9
f 18/31/10 20/32/10 16/28/10 14/27/10
f 17/33/11 13/21/11 16/22/11 20/34/11
f 9/24/5 15/35/5 14/36/5 11/25/5
f 9/30/12 10/29/12 13/37/12 15/38/12
f 8/7/13 17/33/13 20/34/13 6/9/13
f 5/10/10 6/9/10 20/32/10 18/31/10
f 15/35/5 19/15/5 18/16/5 14/36/5
f 15/38/2 13/37/2 17/6/2 19/5/2
o Cube.001
v 0.782267 -0.642231 2.853582
v 0.782267 0.642231 2.853582
v 0.782267 -0.642231 1.569120
v 0.782267 0.642231 1.569120
v 2.066729 -0.642231 2.853582
v 2.066729 0.642231 2.853582
v 2.066729 -0.642231 1.569120
v 2.066729 0.642231 1.569120
v 1.275865 -0.148633 2.154582
v 1.275865 0.148633 2.154582
v 1.275865 -0.148633 -2.154582
v 1.275865 0.148633 -2.154582
v 1.573131 -0.148633 2.154582
v 1.573131 0.148633 2.154582
v 1.573131 -0.148633 -2.154582
v 1.573131 0.148633 -2.154582
v 0.782267 -0.642231 -2.853582
v 0.782267 0.642231 -2.853582
v 0.782267 -0.642231 -1.569120
v 0.782267 0.642231 -1.569120
v 2.066729 -0.642231 -2.853582
v 2.066729 0.642231 -2.853582
v 2.066729 -0.642231 -1.569120
v 2.066729 0.642231 -1.569120
v 1.275865 -0.148633 -2.154582
v 1.275865 0.148633 -2.154582
v 1.275865 -0.148633 2.154582
v 1.275865 0.148633 2.154582
v 1.573131 -0.148633 -2.154582
v 1.573131 0.148633 -2.154582
v 1.573131 -0.148633 2.154582
v 1.573131 0.148633 2.154582
vn -1.0000 -0.0000 -0.0000
vn -0.0000 -0.0000 -1.0000
vn 1.0000 -0.0000 -0.0000
vn -0.0000 -0.0000 1.0000
vn -0.0000 -1.0000 -0.0000
vn -0.0000 1.0000 -0.0000
vt 0.375000 0.000000
vt 0.625000 0.000000
vt 0.625000 0.250000
vt 0.375000 0.250000
vt 0.625000 0.500000
vt 0.375000 0.500000
vt 0.625000 0.750000
vt 0.375000 0.750000
vt 0.625000 1.000000
vt 0.375000 1.000000
vt 0.125000 0.500000
vt 0.125000 0.750000
vt 0.875000 0.500000
vt 0.875000 0.750000
s 0
f 21/39/14 22/40/14 24/41/14 23/42/14
f 23/42/15 24/41/15 28/43/15 27/44/15
f 27/44/16 28/43/16 26/45/16 25/46/16
f 25/46/17 26/45/17 22/47/17 21/48/17
f 23/49/18 27/44/18 25/46/18 21/50/18
f 28/43/19 24/51/19 22/52/19 26/45/19
f 29/39/14 30/40/14 32/41/14 31/42/14
f 31/42/15 32/41/15 36/43/15 35/44/15
f 35/44/16 36/43/16 34/45/16 33/46/16
f 33/46/17 34/45/17 30/47/17 29/48/17
f 31/49/18 35/44/18 33/46/18 29/50/18
f 36/43/19 32/51/19 30/52/19 34/45/19
f 37/39/14 39/42/14 40/41/14 38/40/14
f 39/42/17 43/44/17 44/43/17 40/41/17
f 43/44/16 41/46/16 42/45/16 44/43/16
f 41/46/15 37/48/15 38/47/15 42/45/15
f 39/49/18 37/50/18 41/46/18 43/44/18
f 44/43/19 42/45/19 38/52/19 40/51/19
f 45/39/14 47/42/14 48/41/14 46/40/14
f 47/42/17 51/44/17 52/43/17 48/41/17
f 51/44/16 49/46/16 50/45/16 52/43/16
f 49/46/15 45/48/15 46/47/15 50/45/15
f 47/49/18 45/50/18 49/46/18 51/44/18
f 52/43/19 50/45/19 46/52/19 48/51/19
o Cube.002
v -3.220054 -0.642231 2.853582
v -3.220054 0.642231 2.853582
v -3.220054 -0.642231 1.569120
v -3.220054 0.642231 1.569120
v -1.935592 -0.642231 2.853582
v -1.935592 0.642231 2.853582
v -1.935592 -0.642231 1.569120
v -1.935592 0.642231 1.569120
v -2.726456 -0.148633 2.154582
v -2.726456 0.148633 2.154582
v -2.726456 -0.148633 -2.154582
v -2.726456 0.148633 -2.154582
v -2.429190 -0.148633 2.154582
v -2.429190 0.148633 2.154582
v -2.429190 -0.148633 -2.154582
v -2.429190 0.148633 -2.154582
v -3.220054 -0.642231 -2.853582
v -3.220054 0.642231 -2.853582
v -3.220054 -0.642231 -1.569120
v -3.220054 0.642231 -1.569120
v -1.935592 -0.642231 -2.853582
v -1.935592 0.642231 -2.853582
v -1.935592 -0.642231 -1.569120
v -1.935592 0.642231 -1.569120
v -2.726456 -0.148633 -2.154582
v -2.726456 0.148633 -2.154582
v -2.726456 -0.148633 2.154582
v -2.726456 0.148633 2.154582
v -2.429190 -0.148633 -2.154582
v -2.429190 0.148633 -2.154582
v -2.429190 -0.148633 2.154582
v -2.429190 0.148633 2.154582
vn -1.0000 -0.0000 -0.0000
vn -0.0000 -0.0000 -1.0000
vn 1.0000 -0.0000 -0.0000
vn -0.0000 -0.0000 1.0000
vn -0.0000 -1.0000 -0.0000
vn -0.0000 1.0000 -0.0000
vt 0.375000 0.000000
vt 0.625000 0.000000
vt 0.625000 0.250000
vt 0.375000 0.250000
vt 0.625000 0.500000
vt 0.375000 0.500000
vt 0.625000 0.750000
vt 0.375000 0.750000
vt 0.625000 1.000000
vt 0.375000 1.000000
vt 0.125000 0.500000
vt 0.125000 0.750000
vt 0.875000 0.500000
vt 0.875000 0.750000
s 0
f 53/53/20 54/54/20 56/55/20 55/56/20
f 55/56/21 56/55/21 60/57/21 59/58/21
f 59/58/22 60/57/22 58/59/22 57/60/22
f 57/60/23 58/59/23 54/61/23 53/62/23
f 55/63/24 59/58/24 57/60/24 53/64/24
f 60/57/25 56/65/25 54/66/25 58/59/25
f 61/53/20 62/54/20 64/55/20 63/56/20
f 63/56/21 64/55/21 68/57/21 67/58/21
f 67/58/22 68/57/22 66/59/22 65/60/22
f 65/60/23 66/59/23 62/61/23 61/62/23
f 63/63/24 67/58/24 65/60/24 61/64/24
f 68/57/25 64/65/25 62/66/25 66/59/25
f 69/53/20 71/56/20 72/55/20 70/54/20
f 71/56/23 75/58/23 76/57/23 72/55/23
f 75/58/22 73/60/22 74/59/22 76/57/22
f 73/60/21 69/62/21 70/61/21 74/59/21
f 71/63/24 69/64/24 73/60/24 75/58/24
f 76/57/25 74/59/25 70/66/25 72/65/25
f 77/53/20 79/56/20 80/55/20 78/54/20
f 79/56/23 83/58/23 84/57/23 80/55/23
f 83/58/22 81/60/22 82/59/22 84/57/22
f 81/60/21 77/62/21 78/61/21 82/59/21
f 79/63/24 77/64/24 81/60/24 83/58/24
f 84/57/25 82/59/25 78/66/25 80/65/25
