# Blender 4.0.2
# www.blender.org
mtllib legchovyshka.mtl
o Cube
v 0.653475 -0.319550 -0.597168
v 0.653475 0.537613 -0.597617
v 0.653475 -0.291198 -1.500887
v 0.653475 0.376254 -1.396929
v 0.000000 -0.291198 -1.500887
v 0.000000 0.376254 -1.396929
v 0.000000 -0.319550 -0.597168
v 0.000000 0.603071 -0.634970
v 0.653475 -0.318266 -0.134540
v 0.653475 0.560798 -0.109006
v 0.000000 -0.318266 -0.134540
v 0.000000 0.621687 -0.097432
v 0.653475 -0.324746 0.706507
v 0.653475 0.352413 0.653554
v 0.000000 -0.324746 0.706507
v 0.000000 0.419882 0.641047
v 0.653475 -0.317667 1.621837
v 0.653475 0.151321 1.631288
v 0.000000 -0.317667 1.621837
v 0.000000 0.151321 1.631288
v 0.653475 -0.244920 1.744829
v 0.653475 -0.031102 1.763731
v 0.000000 -0.244920 1.744829
v 0.000000 -0.031102 1.763731
v 0.653475 -0.119128 -1.686033
v 0.653475 0.359310 -1.582076
v 0.000000 -0.119128 -1.686033
v 0.000000 0.359310 -1.582076
v 0.653475 0.042528 -1.448908
v 0.653475 0.245915 -0.804974
v 0.000000 0.184289 -0.932667
v 0.000000 0.042528 -1.448908
v 0.653475 0.197933 -0.102135
v 0.000000 0.143045 -0.162892
v 0.653475 0.106931 0.650350
v 0.000000 0.037332 0.711233
v 0.653475 -0.083173 1.626563
v 0.000000 -0.083173 1.626563
v 0.653475 -0.138011 1.754280
v 0.000000 -0.138011 1.754280
v 0.653475 0.120091 -1.634054
v 0.000000 0.120091 -1.634054
v 0.575816 0.419882 0.641047
v 0.653475 0.567885 -0.239319
v 0.653475 0.215250 -0.232642
v 0.653475 0.037332 0.711233
v 0.653475 0.603071 -0.634970
v 0.575816 0.621687 -0.097432
v 0.653475 0.184289 -0.932667
v 0.653475 0.143045 -0.162892
v 0.571271 0.352413 0.653554
v 0.571271 0.560798 -0.109006
v 0.571271 0.197933 -0.102135
v 0.571271 0.106931 0.650350
v 0.571271 0.537613 -0.597617
v 0.571271 0.567885 -0.239319
v 0.571271 0.245915 -0.804974
v 0.571271 0.215250 -0.232642
v -0.653475 -0.319550 -0.597168
v -0.653475 0.537613 -0.597617
v -0.653475 -0.291198 -1.500887
v -0.653475 0.376254 -1.396929
v -0.653475 -0.318266 -0.134540
v -0.653475 0.560798 -0.109006
v -0.653475 -0.324746 0.706507
v -0.653475 0.352413 0.653554
v -0.653475 -0.317667 1.621837
v -0.653475 0.151321 1.631288
v -0.653475 -0.244920 1.744829
v -0.653475 -0.031102 1.763731
v -0.653475 -0.119128 -1.686033
v -0.653475 0.359310 -1.582076
v -0.653475 0.042528 -1.448908
v -0.653475 0.245915 -0.804974
v -0.653475 0.197933 -0.102135
v -0.653475 0.106931 0.650350
v -0.653475 -0.083173 1.626563
v -0.653475 -0.138011 1.754280
v -0.653475 0.120091 -1.634054
v -0.575816 0.419882 0.641047
v -0.653475 0.567885 -0.239319
v -0.653475 0.215250 -0.232642
v -0.653475 0.037332 0.711233
v -0.653475 0.603071 -0.634970
v -0.575816 0.621687 -0.097432
v -0.653475 0.184289 -0.932667
v -0.653475 0.143045 -0.162892
v -0.571271 0.352413 0.653554
v -0.571271 0.560798 -0.109006
v -0.571271 0.197933 -0.102135
v -0.571271 0.106931 0.650350
v -0.571271 0.537613 -0.597617
v -0.571271 0.567885 -0.239319
v -0.571271 0.245915 -0.804974
v -0.571271 0.215250 -0.232642
v 0.653475 0.642158 -0.172343
v 0.000000 0.642158 -0.172343
v 0.653475 0.399411 0.715958
v 0.000000 0.399411 0.715958
v -0.653475 0.642158 -0.172343
v -0.653475 0.399411 0.715958
v 0.575816 0.584588 -0.107570
v 0.000000 0.584588 -0.107570
v 0.575816 0.382783 0.630909
v 0.000000 0.382783 0.630909
v -0.575816 0.584588 -0.107570
v -0.575816 0.382783 0.630909
vn 1.0000 -0.0000 -0.0000
vn -0.0000 -0.9995 -0.0314
vn -0.0000 0.9584 -0.2853
vn -0.0000 0.9986 0.0535
vn -1.0000 -0.0000 -0.0000
vn -0.0000 0.9964 -0.0842
vn -0.0000 -1.0000 0.0028
vn -0.0000 0.9652 0.2616
vn -0.0000 -1.0000 -0.0077
vn -0.0000 0.0130 -0.9999
vn -0.0000 0.5875 0.8092
vn -0.0000 -1.0000 0.0077
vn -0.0000 -0.0881 0.9961
vn -0.0000 -0.8607 0.5091
vn -0.0000 0.2123 -0.9772
vn -0.0000 -0.7325 -0.6808
vn -0.0000 0.9958 -0.0911
vn -0.0000 -0.9646 -0.2636
vn -0.0000 -0.5794 0.8151
vn -0.0000 0.9928 0.1201
vn -0.0000 0.0189 0.9998
vn -0.0000 -0.0189 -0.9998
vn -0.0000 -0.9964 0.0842
vn -0.0000 0.9646 0.2636
vn -0.0000 -0.2636 0.9646
vn -0.0000 0.2636 -0.9646
vt 0.500000 0.500000
vt 0.375000 0.500000
vt 0.500000 0.500000
vt 0.625000 0.500000
vt 0.625000 0.750000
vt 0.500000 0.750000
vt 0.250000 0.500000
vt 0.375000 0.750000
vt 0.250000 0.750000
vt 0.750000 0.500000
vt 0.750000 0.750000
vt 0.517665 0.750000
vt 0.519398 0.750000
vt 0.000000 0.000000
vt 0.604153 0.750000
vt 0.520682 0.750000
vt 0.500000 0.750000
vt 0.500000 0.750000
vt 0.625000 0.875000
vt 0.500000 0.875000
vt 0.500000 0.375000
vt 0.625000 0.375000
vt 0.375000 0.375000
vt 0.375000 0.875000
vt 0.500000 0.750000
vt 0.608407 0.750000
vt 0.516428 0.750000
vt 0.607207 0.750000
vt 0.605104 0.750000
vt 0.636195 0.750000
vt 0.636195 0.750000
vt 0.724330 0.750000
vt 0.724330 0.750000
s 0
f 29/1/1 3/2/1 25/2/1 41/3/1
f 29/1/1 4/4/1 47/5/1 49/6/1
f 5/7/2 3/2/2 1/8/2 7/9/2
f 4/4/3 6/10/3 8/11/3 47/5/3
f 45/12/4 30/13/4 57/13/4 58/12/4
f 34/14/5 11/14/5 15/14/5 36/14/5
f 47/5/6 8/11/6 97/11/6 96/5/6
f 7/9/7 1/8/7 9/8/7 11/9/7
f 31/14/5 7/14/5 11/14/5 34/14/5
f 98/5/8 99/11/8 20/11/8 18/5/8
f 11/9/9 9/8/9 13/8/9 15/9/9
f 14/15/10 35/16/10 54/16/10 51/15/10
f 18/5/11 20/11/11 24/11/11 22/5/11
f 46/17/1 98/5/1 18/5/1 37/18/1
f 36/14/5 15/14/5 19/14/5 38/14/5
f 15/9/12 13/8/12 17/8/12 19/9/12
f 39/6/13 22/5/13 24/19/13 40/20/13
f 37/18/1 18/5/1 22/5/1 39/6/1
f 38/14/5 19/14/5 23/14/5 40/14/5
f 19/9/14 17/8/14 21/8/14 23/9/14
f 42/21/15 28/22/15 26/4/15 41/3/15
f 3/2/16 5/7/16 27/7/16 25/2/16
f 6/10/17 4/4/17 26/4/17 28/10/17
f 32/14/5 6/14/5 28/14/5 42/14/5
f 5/14/5 32/14/5 42/14/5 27/14/5
f 27/23/15 42/21/15 41/3/15 25/2/15
f 20/14/5 38/14/5 40/14/5 24/14/5
f 17/8/1 37/18/1 39/6/1 21/8/1
f 21/8/13 39/6/13 40/20/13 23/24/13
f 99/14/5 36/14/5 38/14/5 20/14/5
f 13/8/1 46/17/1 37/18/1 17/8/1
f 9/8/1 50/25/1 46/17/1 13/8/1
f 8/14/5 31/14/5 34/14/5 97/14/5
f 1/8/1 49/6/1 50/25/1 9/8/1
f 3/2/1 29/1/1 49/6/1 1/8/1
f 4/4/1 29/1/1 41/3/1 26/4/1
f 14/15/1 10/26/1 96/5/1 98/5/1
f 10/26/1 33/27/1 50/25/1 96/5/1
f 35/16/1 14/15/1 98/5/1 46/17/1
f 33/27/1 35/16/1 46/17/1 50/25/1
f 44/28/1 2/29/1 47/5/1 96/5/1
f 2/29/1 30/13/1 49/6/1 47/5/1
f 45/12/1 44/28/1 96/5/1 50/25/1
f 30/13/1 45/12/1 50/25/1 49/6/1
f 10/26/18 14/15/18 51/15/18 52/26/18
f 30/13/19 2/29/19 55/29/19 57/13/19
f 35/16/20 33/27/20 53/27/20 54/16/20
f 33/27/21 10/26/21 52/26/21 53/27/21
f 44/28/22 45/12/22 58/12/22 56/28/22
f 2/29/23 44/28/23 56/28/23 55/29/23
f 73/1/5 79/3/5 71/2/5 61/2/5
f 73/1/5 86/6/5 84/5/5 62/4/5
f 5/7/2 7/9/2 59/8/2 61/2/2
f 62/4/3 84/5/3 8/11/3 6/10/3
f 82/12/4 95/12/4 94/13/4 74/13/4
f 84/5/6 100/5/6 97/11/6 8/11/6
f 7/9/7 11/9/7 63/8/7 59/8/7
f 101/5/8 68/5/8 20/11/8 99/11/8
f 11/9/9 15/9/9 65/8/9 63/8/9
f 66/15/10 88/15/10 91/16/10 76/16/10
f 68/5/11 70/5/11 24/11/11 20/11/11
f 83/17/5 77/18/5 68/5/5 101/5/5
f 15/9/12 19/9/12 67/8/12 65/8/12
f 78/6/13 40/20/13 24/19/13 70/5/13
f 77/18/5 78/6/5 70/5/5 68/5/5
f 19/9/14 23/9/14 69/8/14 67/8/14
f 42/21/15 79/3/15 72/4/15 28/22/15
f 61/2/16 71/2/16 27/7/16 5/7/16
f 6/10/17 28/10/17 72/4/17 62/4/17
f 27/23/15 71/2/15 79/3/15 42/21/15
f 67/8/5 69/8/5 78/6/5 77/18/5
f 69/8/13 23/24/13 40/20/13 78/6/13
f 65/8/5 67/8/5 77/18/5 83/17/5
f 63/8/5 65/8/5 83/17/5 87/25/5
f 59/8/5 63/8/5 87/25/5 86/6/5
f 61/2/5 59/8/5 86/6/5 73/1/5
f 62/4/5 72/4/5 79/3/5 73/1/5
f 66/15/5 101/5/5 100/5/5 64/26/5
f 64/26/5 100/5/5 87/25/5 75/27/5
f 76/16/5 83/17/5 101/5/5 66/15/5
f 75/27/5 87/25/5 83/17/5 76/16/5
f 81/28/5 100/5/5 84/5/5 60/29/5
f 60/29/5 84/5/5 86/6/5 74/13/5
f 82/12/5 87/25/5 100/5/5 81/28/5
f 74/13/5 86/6/5 87/25/5 82/12/5
f 64/26/18 89/26/18 88/15/18 66/15/18
f 74/13/19 94/13/19 92/29/19 60/29/19
f 76/16/20 91/16/20 90/27/20 75/27/20
f 75/27/21 90/27/21 89/26/21 64/26/21
f 81/28/22 93/28/22 95/12/22 82/12/22
f 60/29/23 92/29/23 93/28/23 81/28/23
f 85/30/1 80/31/1 107/31/1 106/30/1
f 12/32/24 48/30/24 96/5/24 97/11/24
f 43/31/24 16/33/24 99/11/24 98/5/24
f 48/30/24 43/31/24 98/5/24 96/5/24
f 85/30/24 12/32/24 97/11/24 100/5/24
f 16/33/24 80/31/24 101/5/24 99/11/24
f 80/31/24 85/30/24 100/5/24 101/5/24
f 12/32/25 85/30/25 106/30/25 103/32/25
f 16/33/26 43/31/26 104/31/26 105/33/26
f 80/31/26 16/33/26 105/33/26 107/31/26
f 43/31/5 48/30/5 102/30/5 104/31/5
f 48/30/25 12/32/25 103/32/25 102/30/25
o Cylinder
v 0.482314 -0.237681 -1.321772
v 0.762526 -0.237681 -1.321772
v 0.482314 -0.417541 -1.256308
v 0.762526 -0.417541 -1.256308
v 0.482314 -0.513242 -1.090548
v 0.762526 -0.513242 -1.090548
v 0.482314 -0.480005 -0.902053
v 0.762526 -0.480005 -0.902053
v 0.482314 -0.333382 -0.779022
v 0.762526 -0.333382 -0.779022
v 0.482314 -0.141979 -0.779022
v 0.762526 -0.141979 -0.779022
v 0.482314 0.004644 -0.902053
v 0.762526 0.004644 -0.902053
v 0.482314 0.037881 -1.090548
v 0.762526 0.037881 -1.090548
v 0.482314 -0.057821 -1.256308
v 0.762526 -0.057821 -1.256308
v 0.482314 -0.237681 1.321772
v 0.762526 -0.237681 1.321772
v 0.482314 -0.417541 1.256308
v 0.762526 -0.417541 1.256308
v 0.482314 -0.513242 1.090548
v 0.762526 -0.513242 1.090548
v 0.482314 -0.480005 0.902053
v 0.762526 -0.480005 0.902053
v 0.482314 -0.333382 0.779022
v 0.762526 -0.333382 0.779022
v 0.482314 -0.141979 0.779022
v 0.762526 -0.141979 0.779022
v 0.482314 0.004644 0.902053
v 0.762526 0.004644 0.902053
v 0.482314 0.037881 1.090548
v 0.762526 0.037881 1.090548
v 0.482314 -0.057821 1.256308
v 0.762526 -0.057821 1.256308
v -0.482314 -0.237681 -1.321772
v -0.762526 -0.237681 -1.321772
v -0.482314 -0.417541 -1.256308
v -0.762526 -0.417541 -1.256308
v -0.482314 -0.513242 -1.090548
v -0.762526 -0.513242 -1.090548
v -0.482314 -0.480005 -0.902053
v -0.762526 -0.480005 -0.902053
v -0.482314 -0.333382 -0.779022
v -0.762526 -0.333382 -0.779022
v -0.482314 -0.141979 -0.779022
v -0.762526 -0.141979 -0.779022
v -0.482314 0.004644 -0.902053
v -0.762526 0.004644 -0.902053
v -0.482314 0.037881 -1.090548
v -0.762526 0.037881 -1.090548
v -0.482314 -0.057821 -1.256308
v -0.762526 -0.057821 -1.256308
v -0.482314 -0.237681 1.321772
v -0.762526 -0.237681 1.321772
v -0.482314 -0.417541 1.256308
v -0.762526 -0.417541 1.256308
v -0.482314 -0.513242 1.090548
v -0.762526 -0.513242 1.090548
v -0.482314 -0.480005 0.902053
v -0.762526 -0.480005 0.902053
v -0.482314 -0.333382 0.779022
v -0.762526 -0.333382 0.779022
v -0.482314 -0.141979 0.779022
v -0.762526 -0.141979 0.779022
v -0.482314 0.004644 0.902053
v -0.762526 0.004644 0.902053
v -0.482314 0.037881 1.090548
v -0.762526 0.037881 1.090548
v -0.482314 -0.057821 1.256308
v -0.762526 -0.057821 1.256308
vn -0.0000 -0.3420 -0.9397
vn -0.0000 -0.8660 -0.5000
vn -0.0000 -0.9848 0.1736
vn -0.0000 -0.6428 0.7660
vn -0.0000 -0.0000 1.0000
vn -0.0000 0.6428 0.7660
vn -0.0000 0.9848 0.1736
vn 1.0000 -0.0000 -0.0000
vn -0.0000 0.8660 -0.5000
vn -0.0000 0.3420 -0.9397
vn -1.0000 -0.0000 -0.0000
vn -0.0000 -0.3420 0.9397
vn -0.0000 -0.8660 0.5000
vn -0.0000 -0.9848 -0.1736
vn -0.0000 -0.6428 -0.7660
vn -0.0000 -0.0000 -1.0000
vn -0.0000 0.6428 -0.7660
vn -0.0000 0.9848 -0.1736
vn -0.0000 0.8660 0.5000
vn -0.0000 0.3420 0.9397
vt 1.000000 0.500000
vt 1.000000 1.000000
vt 0.888889 1.000000
vt 0.888889 0.500000
vt 0.777778 1.000000
vt 0.777778 0.500000
vt 0.666667 1.000000
vt 0.666667 0.500000
vt 0.555556 1.000000
vt 0.555556 0.500000
vt 0.444444 1.000000
vt 0.444444 0.500000
vt 0.333333 1.000000
vt 0.333333 0.500000
vt 0.222222 1.000000
vt 0.222222 0.500000
vt 0.404269 0.433851
vt 0.250000 0.490000
vt 0.095731 0.433851
vt 0.013646 0.291676
vt 0.042154 0.130000
vt 0.167915 0.024474
vt 0.332085 0.024474
vt 0.457846 0.130000
vt 0.486354 0.291676
vt 0.111111 1.000000
vt 0.111111 0.500000
vt 0.000000 1.000000
vt 0.000000 0.500000
vt 0.750000 0.490000
vt 0.904269 0.433851
vt 0.986354 0.291676
vt 0.957846 0.130000
vt 0.832085 0.024474
vt 0.667915 0.024474
vt 0.542154 0.130000
vt 0.513646 0.291676
vt 0.595731 0.433851
s 0
f 108/34/27 109/35/27 111/36/27 110/37/27
f 110/37/28 111/36/28 113/38/28 112/39/28
f 112/39/29 113/38/29 115/40/29 114/41/29
f 114/41/30 115/40/30 117/42/30 116/43/30
f 116/43/31 117/42/31 119/44/31 118/45/31
f 118/45/32 119/44/32 121/46/32 120/47/32
f 120/47/33 121/46/33 123/48/33 122/49/33
f 111/50/34 109/51/34 125/52/34 123/53/34 121/54/34 119/55/34 117/56/34 115/57/34 113/58/34
f 122/49/35 123/48/35 125/59/35 124/60/35
f 124/60/36 125/59/36 109/61/36 108/62/36
f 108/63/37 110/64/37 112/65/37 114/66/37 116/67/37 118/68/37 120/69/37 122/70/37 124/71/37
f 126/34/38 128/37/38 129/36/38 127/35/38
f 128/37/39 130/39/39 131/38/39 129/36/39
f 130/39/40 132/41/40 133/40/40 131/38/40
f 132/41/41 134/43/41 135/42/41 133/40/41
f 134/43/42 136/45/42 137/44/42 135/42/42
f 136/45/43 138/47/43 139/46/43 137/44/43
f 138/47/44 140/49/44 141/48/44 139/46/44
f 129/50/34 131/58/34 133/57/34 135/56/34 137/55/34 139/54/34 141/53/34 143/52/34 127/51/34
f 140/49/45 142/60/45 143/59/45 141/48/45
f 142/60/46 126/62/46 127/61/46 143/59/46
f 126/63/37 142/71/37 140/70/37 138/69/37 136/68/37 134/67/37 132/66/37 130/65/37 128/64/37
f 144/34/27 146/37/27 147/36/27 145/35/27
f 146/37/28 148/39/28 149/38/28 147/36/28
f 148/39/29 150/41/29 151/40/29 149/38/29
f 150/41/30 152/43/30 153/42/30 151/40/30
f 152/43/31 154/45/31 155/44/31 153/42/31
f 154/45/32 156/47/32 157/46/32 155/44/32
f 156/47/33 158/49/33 159/48/33 157/46/33
f 147/50/37 149/58/37 151/57/37 153/56/37 155/55/37 157/54/37 159/53/37 161/52/37 145/51/37
f 158/49/35 160/60/35 161/59/35 159/48/35
f 160/60/36 144/62/36 145/61/36 161/59/36
f 144/63/34 160/71/34 158/70/34 156/69/34 154/68/34 152/67/34 150/66/34 148/65/34 146/64/34
f 162/34/38 163/35/38 165/36/38 164/37/38
f 164/37/39 165/36/39 167/38/39 166/39/39
f 166/39/40 167/38/40 169/40/40 168/41/40
f 168/41/41 169/40/41 171/42/41 170/43/41
f 170/43/42 171/42/42 173/44/42 172/45/42
f 172/45/43 173/44/43 175/46/43 174/47/43
f 174/47/44 175/46/44 177/48/44 176/49/44
f 165/50/37 163/51/37 179/52/37 177/53/37 175/54/37 173/55/37 171/56/37 169/57/37 167/58/37
f 176/49/45 177/48/45 179/59/45 178/60/45
f 178/60/46 179/59/46 163/61/46 162/62/46
f 162/63/34 164/64/34 166/65/34 168/66/34 170/67/34 172/68/34 174/69/34 176/70/34 178/71/34
o Cube.001
v 0.571271 0.352413 0.653554
v 0.571271 0.560798 -0.109006
v 0.571271 0.197933 -0.102135
v 0.571271 0.106931 0.650350
v 0.571271 0.537613 -0.597617
v 0.571271 0.567885 -0.239319
v 0.571271 0.245915 -0.804974
v 0.571271 0.215250 -0.232642
v -0.571271 0.352413 0.653554
v -0.571271 0.560798 -0.109006
v -0.571271 0.197933 -0.102135
v -0.571271 0.106931 0.650350
v -0.571271 0.537613 -0.597617
v -0.571271 0.567885 -0.239319
v -0.571271 0.245915 -0.804974
v -0.571271 0.215250 -0.232642
v 0.575816 0.584588 -0.107570
v 0.000000 0.584588 -0.107570
v 0.575816 0.382783 0.630909
v 0.000000 0.382783 0.630909
v -0.575816 0.584588 -0.107570
v -0.575816 0.382783 0.630909
vn 1.0000 -0.0000 -0.0000
vn -1.0000 -0.0000 -0.0000
vn -0.0000 0.9646 0.2636
vt 0.519398 0.750000
vt 0.605104 0.750000
vt 0.607207 0.750000
vt 0.517665 0.750000
vt 0.516428 0.750000
vt 0.608407 0.750000
vt 0.604153 0.750000
vt 0.520682 0.750000
vt 0.636195 0.750000
vt 0.724330 0.750000
vt 0.636195 0.750000
vt 0.724330 0.750000
s 0
f 186/72/47 184/73/47 185/74/47 187/75/47
f 182/76/47 181/77/47 180/78/47 183/79/47
f 194/72/48 195/75/48 193/74/48 192/73/48
f 190/76/48 191/79/48 188/78/48 189/77/48
f 196/80/49 197/81/49 200/80/49 201/82/49 199/83/49 198/82/49
