# Blender 4.0.2
# www.blender.org
mtllib road part.mtl
o Plane
v -0.026447 0.000000 -0.130377
v 0.026447 0.000000 -0.130377
v -0.026447 0.000000 0.130377
v 0.026447 0.000000 0.130377
v -0.026447 0.006465 -0.130377
v 0.026447 0.006465 -0.130377
v -0.026447 0.006465 0.130377
v 0.026447 0.006465 0.130377
vn -0.0000 -1.0000 -0.0000
vn -0.0000 1.0000 -0.0000
vn 1.0000 -0.0000 -0.0000
vn -1.0000 -0.0000 -0.0000
vn -0.0000 -0.0000 1.0000
vn -0.0000 -0.0000 -1.0000
vt 0.000000 0.000000
vt 0.000000 1.000000
vt 1.000000 1.000000
vt 1.000000 0.000000
s 0
f 1/1/1 2/4/1 4/3/1 3/2/1
f 5/1/2 7/2/2 8/3/2 6/4/2
f 2/4/3 6/4/3 8/3/3 4/3/3
f 3/2/4 7/2/4 5/1/4 1/1/4
f 4/3/5 8/3/5 7/2/5 3/2/5
f 1/1/6 5/1/6 6/4/6 2/4/6
