# Blender 4.0.2
# www.blender.org
mtllib scope_active.mtl
o Cube
v -1.028867 -1.028867 1.028867
v -1.028867 1.028867 1.028867
v -1.028867 -1.028867 -1.028867
v -1.028867 1.028867 -1.028867
v 1.028867 -1.028867 1.028867
v 1.028867 1.028867 1.028867
v 1.028867 -1.028867 -1.028867
v 1.028867 1.028867 -1.028867
v -1.050000 -0.747501 0.747501
v -1.050000 0.747501 0.747501
v -1.050000 0.747501 -0.747501
v -1.050000 -0.747501 -0.747501
v -0.747501 -0.747501 -1.050000
v -0.747501 0.747501 -1.050000
v 0.747501 0.747501 -1.050000
v 0.747501 -0.747501 -1.050000
v 1.050000 -0.747501 -0.747501
v 1.050000 0.747501 -0.747501
v 1.050000 0.747501 0.747501
v 1.050000 -0.747501 0.747501
v 0.747501 -0.747501 1.050000
v 0.747501 0.747501 1.050000
v -0.747501 0.747501 1.050000
v -0.747501 -0.747501 1.050000
v -0.747501 -1.050000 -0.747501
v 0.747501 -1.050000 -0.747501
v 0.747501 -1.050000 0.747501
v -0.747501 -1.050000 0.747501
v 0.747501 1.050000 -0.747501
v -0.747501 1.050000 -0.747501
v -0.747501 1.050000 0.747501
v 0.747501 1.050000 0.747501
v -1.000000 -1.000000 1.000000
v -1.000000 1.000000 1.000000
v -1.000000 -1.000000 -1.000000
v -1.000000 1.000000 -1.000000
v 1.000000 -1.000000 1.000000
v 1.000000 1.000000 1.000000
v 1.000000 -1.000000 -1.000000
v 1.000000 1.000000 -1.000000
v -1.000000 -0.747501 0.747501
v -1.000000 0.747501 0.747501
v -1.000000 0.747501 -0.747501
v -1.000000 -0.747501 -0.747501
v -0.747501 -0.747501 -1.000000
v -0.747501 0.747501 -1.000000
v 0.747501 0.747501 -1.000000
v 0.747501 -0.747501 -1.000000
v 1.000000 -0.747501 -0.747501
v 1.000000 0.747501 -0.747501
v 1.000000 0.747501 0.747501
v 1.000000 -0.747501 0.747501
v 0.747501 -0.747501 1.000000
v 0.747501 0.747501 1.000000
v -0.747501 0.747501 1.000000
v -0.747501 -0.747501 1.000000
v -0.747501 -1.000000 -0.747501
v 0.747501 -1.000000 -0.747501
v 0.747501 -1.000000 0.747501
v -0.747501 -1.000000 0.747501
v 0.747501 1.000000 -0.747501
v -0.747501 1.000000 -0.747501
v -0.747501 1.000000 0.747501
v 0.747501 1.000000 0.747501
vn -0.9972 -0.0000 0.0749
vn -0.9972 0.0749 -0.0000
vn -0.9972 -0.0000 -0.0749
vn -0.9972 -0.0749 -0.0000
vn -0.0749 -0.0000 -0.9972
vn -0.0000 0.0749 -0.9972
vn 0.0749 -0.0000 -0.9972
vn -0.0000 -0.0749 -0.9972
vn 0.9972 -0.0000 -0.0749
vn 0.9972 0.0749 -0.0000
vn 0.9972 -0.0000 0.0749
vn 0.9972 -0.0749 -0.0000
vn 0.0749 -0.0000 0.9972
vn -0.0000 0.0749 0.9972
vn -0.0749 -0.0000 0.9972
vn -0.0000 -0.0749 0.9972
vn -0.0000 -0.9972 -0.0749
vn 0.0749 -0.9972 -0.0000
vn -0.0000 -0.9972 0.0749
vn -0.0749 -0.9972 -0.0000
vn -0.0000 0.9972 -0.0749
vn -0.0749 0.9972 -0.0000
vn -0.0000 0.9972 0.0749
vn 0.0749 0.9972 -0.0000
vn 1.0000 -0.0000 -0.0000
vn -0.0000 -0.0000 1.0000
vn -1.0000 -0.0000 -0.0000
vn -0.0000 -0.0000 -1.0000
vn -0.0000 1.0000 -0.0000
vn -0.0000 -1.0000 -0.0000
vt 0.375000 0.000000
vt 0.625000 0.000000
vt 0.593438 0.031562
vt 0.406562 0.031562
vt 0.625000 0.250000
vt 0.593438 0.218438
vt 0.375000 0.250000
vt 0.406562 0.218438
vt 0.593438 0.281562
vt 0.406562 0.281562
vt 0.625000 0.500000
vt 0.593438 0.468438
vt 0.375000 0.500000
vt 0.406562 0.468438
vt 0.593438 0.531562
vt 0.406562 0.531562
vt 0.625000 0.750000
vt 0.593438 0.718438
vt 0.375000 0.750000
vt 0.406562 0.718438
vt 0.593438 0.781562
vt 0.406562 0.781562
vt 0.625000 1.000000
vt 0.593438 0.968438
vt 0.375000 1.000000
vt 0.406562 0.968438
vt 0.125000 0.500000
vt 0.343438 0.531562
vt 0.156562 0.531562
vt 0.343438 0.718438
vt 0.125000 0.750000
vt 0.156562 0.718438
vt 0.875000 0.500000
vt 0.843438 0.531562
vt 0.656562 0.531562
vt 0.875000 0.750000
vt 0.843438 0.718438
vt 0.656562 0.718438
s 0
usemtl Material.001
f 1/1/1 2/2/1 10/3/1 9/4/1
f 2/2/2 4/5/2 11/6/2 10/3/2
f 4/5/3 3/7/3 12/8/3 11/6/3
f 3/7/4 1/1/4 9/4/4 12/8/4
f 3/7/5 4/5/5 14/9/5 13/10/5
f 4/5/6 8/11/6 15/12/6 14/9/6
f 8/11/7 7/13/7 16/14/7 15/12/7
f 7/13/8 3/7/8 13/10/8 16/14/8
f 7/13/9 8/11/9 18/15/9 17/16/9
f 8/11/10 6/17/10 19/18/10 18/15/10
f 6/17/11 5/19/11 20/20/11 19/18/11
f 5/19/12 7/13/12 17/16/12 20/20/12
f 5/19/13 6/17/13 22/21/13 21/22/13
f 6/17/14 2/23/14 23/24/14 22/21/14
f 2/23/15 1/25/15 24/26/15 23/24/15
f 1/25/16 5/19/16 21/22/16 24/26/16
f 3/27/17 7/13/17 26/28/17 25/29/17
f 7/13/18 5/19/18 27/30/18 26/28/18
f 5/19/19 1/31/19 28/32/19 27/30/19
f 1/31/20 3/27/20 25/29/20 28/32/20
f 8/11/21 4/33/21 30/34/21 29/35/21
f 4/33/22 2/36/22 31/37/22 30/34/22
f 2/36/23 6/17/23 32/38/23 31/37/23
f 6/17/24 8/11/24 29/35/24 32/38/24
f 33/1/25 41/4/25 42/3/25 34/2/25
f 34/2/25 42/3/25 43/6/25 36/5/25
f 36/5/25 43/6/25 44/8/25 35/7/25
f 35/7/25 44/8/25 41/4/25 33/1/25
f 35/7/26 45/10/26 46/9/26 36/5/26
f 36/5/26 46/9/26 47/12/26 40/11/26
f 40/11/26 47/12/26 48/14/26 39/13/26
f 39/13/26 48/14/26 45/10/26 35/7/26
f 39/13/27 49/16/27 50/15/27 40/11/27
f 40/11/27 50/15/27 51/18/27 38/17/27
f 38/17/27 51/18/27 52/20/27 37/19/27
f 37/19/27 52/20/27 49/16/27 39/13/27
f 37/19/28 53/22/28 54/21/28 38/17/28
f 38/17/28 54/21/28 55/24/28 34/23/28
f 34/23/28 55/24/28 56/26/28 33/25/28
f 33/25/28 56/26/28 53/22/28 37/19/28
f 35/27/29 57/29/29 58/28/29 39/13/29
f 39/13/29 58/28/29 59/30/29 37/19/29
f 37/19/29 59/30/29 60/32/29 33/31/29
f 33/31/29 60/32/29 57/29/29 35/27/29
f 40/11/30 61/35/30 62/34/30 36/33/30
f 36/33/30 62/34/30 63/37/30 34/36/30
f 34/36/30 63/37/30 64/38/30 38/17/30
f 38/17/30 64/38/30 61/35/30 40/11/30
f 9/4/28 10/3/28 42/3/28 41/4/28
f 12/8/29 9/4/29 41/4/29 44/8/29
f 10/3/30 11/6/30 43/6/30 42/3/30
f 11/6/26 12/8/26 44/8/26 43/6/26
f 13/10/25 14/9/25 46/9/25 45/10/25
f 16/14/29 13/10/29 45/10/29 48/14/29
f 14/9/30 15/12/30 47/12/30 46/9/30
f 15/12/27 16/14/27 48/14/27 47/12/27
f 17/16/26 18/15/26 50/15/26 49/16/26
f 20/20/29 17/16/29 49/16/29 52/20/29
f 18/15/30 19/18/30 51/18/30 50/15/30
f 19/18/28 20/20/28 52/20/28 51/18/28
f 21/22/27 22/21/27 54/21/27 53/22/27
f 24/26/29 21/22/29 53/22/29 56/26/29
f 22/21/30 23/24/30 55/24/30 54/21/30
f 23/24/25 24/26/25 56/26/25 55/24/25
f 25/29/26 26/28/26 58/28/26 57/29/26
f 28/32/25 25/29/25 57/29/25 60/32/25
f 26/28/27 27/30/27 59/30/27 58/28/27
f 27/30/28 28/32/28 60/32/28 59/30/28
f 29/35/26 30/34/26 62/34/26 61/35/26
f 32/38/27 29/35/27 61/35/27 64/38/27
f 30/34/25 31/37/25 63/37/25 62/34/25
f 31/37/28 32/38/28 64/38/28 63/37/28
