# Blender 4.0.2
# www.blender.org
mtllib right_button.mtl
o rigth
v 0.400000 0.113692 0.583919
v 0.447206 0.113692 0.597780
v 0.479425 0.113692 0.634962
v 0.486426 0.113692 0.683660
v 0.465988 0.113692 0.728413
v 0.424599 0.113692 0.755012
v 0.375401 0.113692 0.755012
v 0.334012 0.113692 0.728413
v 0.313574 0.113692 0.683660
v 0.320575 0.113692 0.634962
v 0.352794 0.113692 0.597780
v 0.400000 0.288322 0.602119
v 0.400000 0.270859 0.583919
v 0.437366 0.288322 0.613091
v 0.447206 0.270859 0.597780
v 0.462869 0.288322 0.642523
v 0.479425 0.270859 0.634962
v 0.468411 0.288322 0.681070
v 0.486426 0.270859 0.683660
v 0.452233 0.288322 0.716494
v 0.465988 0.270859 0.728413
v 0.419472 0.288322 0.737549
v 0.424599 0.270859 0.755012
v 0.380528 0.288322 0.737549
v 0.375401 0.270859 0.755012
v 0.347767 0.288322 0.716494
v 0.334012 0.270859 0.728413
v 0.331589 0.288322 0.681070
v 0.313574 0.270859 0.683660
v 0.337131 0.288322 0.642523
v 0.320575 0.270859 0.634962
v 0.362634 0.288322 0.613091
v 0.352794 0.270859 0.597780
vn -0.2817 -0.0000 -0.9595
vn 0.9898 -0.0000 -0.1423
vn 0.9096 -0.0000 0.4154
vn 0.5406 -0.0000 0.8413
vn -0.0000 -0.0000 1.0000
vn -0.5406 -0.0000 0.8413
vn -0.9096 -0.0000 0.4154
vn -0.9898 -0.0000 -0.1423
vn -0.7557 -0.0000 -0.6549
vn 0.2817 -0.0000 -0.9595
vn 0.7557 -0.0000 -0.6549
vn -0.0000 -1.0000 -0.0000
vn 0.1992 0.7071 -0.6785
vn 0.5344 0.7071 -0.4631
vn 0.6999 0.7071 -0.1006
vn 0.6432 0.7071 0.2937
vn 0.3823 0.7071 0.5949
vn -0.0000 0.7071 0.7071
vn -0.3823 0.7071 0.5949
vn -0.6432 0.7071 0.2937
vn -0.6999 0.7071 -0.1006
vn -0.5344 0.7071 -0.4631
vn -0.1992 0.7071 -0.6785
vn -0.0000 1.0000 -0.0000
vt 0.090909 0.500000
vt 0.090909 0.950000
vt -0.000000 0.950000
vt -0.000000 0.500000
vt 0.818182 0.500000
vt 0.818182 0.950000
vt 0.727273 0.950000
vt 0.727273 0.500000
vt 0.636364 0.950000
vt 0.636364 0.500000
vt 0.636364 0.950000
vt 0.545454 0.950000
vt 0.545454 0.500000
vt 0.454545 0.950000
vt 0.454545 0.500000
vt 0.454545 0.950000
vt 0.363636 0.950000
vt 0.363636 0.500000
vt 0.272727 0.950000
vt 0.272727 0.500000
vt 0.181818 0.950000
vt 0.181818 0.500000
vt 1.000000 0.500000
vt 1.000000 0.950000
vt 0.909091 0.950000
vt 0.909091 0.500000
vt 0.909091 0.950000
vt 0.818182 0.950000
vt 0.750000 0.490000
vt 0.879754 0.451901
vt 0.968312 0.349700
vt 0.987557 0.215844
vt 0.931380 0.092833
vt 0.817616 0.019722
vt 0.682384 0.019722
vt 0.568620 0.092833
vt 0.512443 0.215844
vt 0.531688 0.349700
vt 0.620246 0.451901
vt 0.379754 0.451901
vt 0.250000 0.490000
vt 0.250000 0.439974
vt 0.352708 0.409816
vt 0.468312 0.349700
vt 0.422806 0.328918
vt 0.487557 0.215844
vt 0.438040 0.222964
vt 0.431380 0.092833
vt 0.393572 0.125594
vt 0.317616 0.019722
vt 0.303522 0.067722
vt 0.182384 0.019722
vt 0.196478 0.067722
vt 0.068620 0.092833
vt 0.106428 0.125594
vt 0.012443 0.215844
vt 0.061960 0.222964
vt 0.031688 0.349700
vt 0.077194 0.328918
vt 0.120246 0.451901
vt 0.147293 0.409816
s 0
usemtl Material.004
f 11/1/1 33/2/1 13/3/1 1/4/1
f 3/5/2 17/6/2 19/7/2 4/8/2
f 4/8/3 19/7/3 21/9/3 5/10/3
f 5/10/4 21/11/4 23/12/4 6/13/4
f 6/13/5 23/12/5 25/14/5 7/15/5
f 7/15/6 25/16/6 27/17/6 8/18/6
f 8/18/7 27/17/7 29/19/7 9/20/7
f 9/20/8 29/19/8 31/21/8 10/22/8
f 10/22/9 31/21/9 33/2/9 11/1/9
f 1/23/10 13/24/10 15/25/10 2/26/10
f 2/26/11 15/27/11 17/28/11 3/5/11
f 1/29/12 2/30/12 3/31/12 4/32/12 5/33/12 6/34/12 7/35/12 8/36/12 9/37/12 10/38/12 11/39/12
f 15/40/13 13/41/13 12/42/13 14/43/13
f 17/44/14 15/40/14 14/43/14 16/45/14
f 19/46/15 17/44/15 16/45/15 18/47/15
f 21/48/16 19/46/16 18/47/16 20/49/16
f 23/50/17 21/48/17 20/49/17 22/51/17
f 25/52/18 23/50/18 22/51/18 24/53/18
f 27/54/19 25/52/19 24/53/19 26/55/19
f 29/56/20 27/54/20 26/55/20 28/57/20
f 31/58/21 29/56/21 28/57/21 30/59/21
f 33/60/22 31/58/22 30/59/22 32/61/22
f 13/41/23 33/60/23 32/61/23 12/42/23
f 14/43/24 12/42/24 32/61/24 30/59/24 28/57/24 26/55/24 24/53/24 22/51/24 20/49/24 18/47/24 16/45/24
