# Blender 4.0.2
# www.blender.org
mtllib enemy.mtl
o Cube
v -1.000000 -1.000000 1.000000
v -1.000000 1.000000 1.000000
v -1.000000 -1.000000 -1.000000
v -1.000000 1.000000 -1.000000
v 1.000000 -1.000000 1.000000
v 1.000000 1.000000 1.000000
v 1.000000 -1.000000 -1.000000
v 1.000000 1.000000 -1.000000
v -1.000000 0.481648 1.000000
v -1.000000 0.481648 -1.000000
v 1.000000 0.481648 -1.000000
v 1.000000 0.481648 1.000000
v -1.000000 0.029482 -1.000000
v 1.000000 0.029482 -1.000000
v 1.000000 0.029482 1.000000
v -1.000000 0.029482 1.000000
vn -1.0000 -0.0000 -0.0000
vn -0.0000 -0.0000 -1.0000
vn 1.0000 -0.0000 -0.0000
vn -0.0000 -0.0000 1.0000
vn -0.0000 -1.0000 -0.0000
vn -0.0000 1.0000 -0.0000
vt 0.560206 0.000000
vt 0.625000 0.000000
vt 0.625000 0.250000
vt 0.560206 0.250000
vt 0.625000 0.500000
vt 0.560206 0.500000
vt 0.625000 0.750000
vt 0.560206 0.750000
vt 0.625000 1.000000
vt 0.560206 1.000000
vt 0.125000 0.500000
vt 0.375000 0.500000
vt 0.375000 0.750000
vt 0.125000 0.750000
vt 0.875000 0.500000
vt 0.875000 0.750000
vt 0.503685 0.750000
vt 0.503685 1.000000
vt 0.503685 0.500000
vt 0.503685 0.250000
vt 0.503685 0.000000
vt 0.375000 0.000000
vt 0.375000 0.250000
vt 0.375000 1.000000
s 0
f 9/1/1 2/2/1 4/3/1 10/4/1
f 10/4/2 4/3/2 8/5/2 11/6/2
f 11/6/3 8/5/3 6/7/3 12/8/3
f 12/8/4 6/7/4 2/9/4 9/10/4
f 3/11/5 7/12/5 5/13/5 1/14/5
f 8/5/6 4/15/6 2/16/6 6/7/6
f 15/17/4 12/8/4 9/10/4 16/18/4
f 14/19/3 11/6/3 12/8/3 15/17/3
f 13/20/2 10/4/2 11/6/2 14/19/2
f 16/21/1 9/1/1 10/4/1 13/20/1
f 1/22/1 16/21/1 13/20/1 3/23/1
f 3/23/2 13/20/2 14/19/2 7/12/2
f 7/12/3 14/19/3 15/17/3 5/13/3
f 5/13/4 15/17/4 16/18/4 1/24/4
o Cube.001
v -1.011547 1.011547 1.011547
v -1.011547 1.011547 -1.011547
v 1.011547 1.011547 1.011547
v 1.011547 1.011547 -1.011547
v -1.014142 0.481648 1.014142
v -1.017889 0.472704 -1.000000
v 1.017889 0.472704 -1.000000
v 1.014142 0.481648 1.014142
v -1.014142 0.628608 1.014142
v -1.018091 0.634639 -1.006030
v 1.018091 0.634639 -1.006030
v 1.014142 0.628608 1.014142
v -1.011547 0.640155 -2.036805
v -1.011547 0.470101 -2.036805
v 1.011547 0.640155 -2.036805
v 1.011547 0.470101 -2.036805
v -0.988453 0.988453 0.988453
v -0.988453 0.988453 -0.988453
v 0.988453 0.988453 0.988453
v 0.988453 0.988453 -0.988453
v -0.985858 0.481648 0.985858
v -0.982111 0.490593 -1.000000
v 0.982111 0.490593 -1.000000
v 0.985858 0.481648 0.985858
v -0.985858 0.628608 0.985858
v -0.981909 0.622578 -0.993970
v 0.981909 0.622578 -0.993970
v 0.985858 0.628608 0.985858
v -0.988453 0.617061 -2.013710
v -0.988453 0.493195 -2.013710
v 0.988453 0.617061 -2.013710
v 0.988453 0.493195 -2.013710
vn -0.9999 0.0120 0.0010
vn -0.0000 -0.0146 -0.9999
vn 0.9999 0.0120 0.0010
vn -0.0000 0.0068 1.0000
vn -0.0000 1.0000 -0.0000
vn -0.0000 -0.0000 1.0000
vn 1.0000 -0.0006 0.0019
vn -0.0000 -1.0000 0.0025
vn -1.0000 -0.0006 0.0019
vn -0.0000 -0.0000 -1.0000
vn 1.0000 -0.0007 -0.0062
vn -0.0000 1.0000 0.0054
vn -1.0000 -0.0007 -0.0062
vn 0.9999 0.0126 0.0010
vn -0.0000 -0.0151 0.9999
vn -0.9999 0.0126 0.0010
vn -0.0000 0.0072 -1.0000
vn -0.0000 -1.0000 -0.0000
vn -1.0000 -0.0008 0.0019
vn -0.0000 1.0000 0.0026
vn 1.0000 -0.0008 0.0019
vn -1.0000 -0.0006 -0.0063
vn -0.0000 -1.0000 0.0054
vn 1.0000 -0.0006 -0.0063
vn -0.2690 -0.9632 -0.0000
vn 0.2690 -0.9632 -0.0000
vt 0.578576 0.000000
vt 0.625000 0.000000
vt 0.625000 0.250000
vt 0.578576 0.250000
vt 0.625000 0.500000
vt 0.578576 0.500000
vt 0.625000 0.750000
vt 0.578576 0.750000
vt 0.625000 1.000000
vt 0.578576 1.000000
vt 0.875000 0.500000
vt 0.875000 0.750000
vt 0.560206 0.750000
vt 0.560206 1.000000
vt 0.560206 0.500000
vt 0.000000 0.000000
vt 0.560206 0.000000
vt 0.560206 0.250000
s 0
f 25/25/7 17/26/7 18/27/7 26/28/7
f 26/28/8 18/27/8 20/29/8 27/30/8
f 27/30/9 20/29/9 19/31/9 28/32/9
f 28/32/10 19/31/10 17/33/10 25/34/10
f 20/29/11 18/35/11 17/36/11 19/31/11
f 24/37/12 28/32/12 25/34/12 21/38/12
f 23/39/13 27/30/13 28/32/13 24/37/13
f 23/40/14 22/40/14 30/40/14 32/40/14
f 21/41/15 25/25/15 26/28/15 22/42/15
f 30/42/16 29/28/16 31/30/16 32/39/16
f 27/30/17 23/39/17 32/39/17 31/30/17
f 26/28/18 27/30/18 31/30/18 29/28/18
f 22/42/19 26/28/19 29/28/19 30/42/19
f 41/25/20 42/28/20 34/27/20 33/26/20
f 42/28/21 43/30/21 36/29/21 34/27/21
f 43/30/22 44/32/22 35/31/22 36/29/22
f 44/32/23 41/34/23 33/33/23 35/31/23
f 36/29/24 35/31/24 33/36/24 34/35/24
f 40/37/16 37/38/16 41/34/16 44/32/16
f 39/39/25 40/37/25 44/32/25 43/30/25
f 39/40/26 48/40/26 46/40/26 38/40/26
f 37/41/27 38/42/27 42/28/27 41/25/27
f 46/42/12 48/39/12 47/30/12 45/28/12
f 43/30/28 47/30/28 48/39/28 39/39/28
f 42/28/29 45/28/29 47/30/29 43/30/29
f 38/42/30 46/42/30 45/28/30 42/28/30
f 24/37/24 21/38/24 37/38/24 40/37/24
f 23/39/31 24/37/31 40/37/31 39/39/31
f 22/40/12 23/40/12 39/40/12 38/40/12
f 21/41/32 22/42/32 38/42/32 37/41/32
o Cube.002
v -1.051962 -1.051962 1.051962
v -1.051962 -1.051962 -1.051962
v 1.051962 -1.051962 1.051962
v 1.051962 -1.051962 -1.051962
v -1.063640 0.029482 -1.063640
v 1.063640 0.029482 -1.063640
v 1.063640 0.029482 1.063640
v -1.063640 0.029482 1.063640
v -1.000000 -1.000000 1.000000
v -1.000000 -1.000000 -1.000000
v 1.000000 -1.000000 1.000000
v 1.000000 -1.000000 -1.000000
v -1.000000 0.029482 -1.000000
v 1.000000 0.029482 -1.000000
v 1.000000 0.029482 1.000000
v -1.000000 0.029482 1.000000
vn -0.0000 -1.0000 -0.0000
vn -0.9999 -0.0108 -0.0000
vn -0.0000 -0.0108 -0.9999
vn 0.9999 -0.0108 -0.0000
vn -0.0000 -0.0108 0.9999
vn -0.0000 1.0000 -0.0000
vn 1.0000 -0.0000 -0.0000
vn -0.0000 -0.0000 1.0000
vn -1.0000 -0.0000 -0.0000
vn -0.0000 -0.0000 -1.0000
vt 0.125000 0.500000
vt 0.375000 0.500000
vt 0.375000 0.750000
vt 0.125000 0.750000
vt 0.375000 0.000000
vt 0.503685 0.000000
vt 0.503685 0.250000
vt 0.375000 0.250000
vt 0.503685 0.500000
vt 0.503685 0.750000
vt 0.503685 1.000000
vt 0.375000 1.000000
s 0
f 50/43/33 52/44/33 51/45/33 49/46/33
f 49/47/34 56/48/34 53/49/34 50/50/34
f 50/50/35 53/49/35 54/51/35 52/44/35
f 52/44/36 54/51/36 55/52/36 51/45/36
f 51/45/37 55/52/37 56/53/37 49/54/37
f 58/43/38 57/46/38 59/45/38 60/44/38
f 57/47/39 58/50/39 61/49/39 64/48/39
f 58/50/40 60/44/40 62/51/40 61/49/40
f 60/44/41 59/45/41 63/52/41 62/51/41
f 59/45/42 57/54/42 64/53/42 63/52/42
f 53/49/38 56/48/38 64/48/38 61/49/38
f 54/51/38 53/49/38 61/49/38 62/51/38
f 55/52/38 54/51/38 62/51/38 63/52/38
f 56/53/38 55/52/38 63/52/38 64/53/38
